# File created by Blade
# Date/Time:  Thu Jan 22 18:25:10 2015
# Frame Rate: 120.000 fps
#------------------------------------------------------
:FULLY-SPECIFIED
:DEGREES
2110
root -3.096283 33.148697 -0.088050 8.071154 -2.994562 2.548570
RightUpLeg -1.047615 -5.082910 -1.602705
RightLeg -0.588214 -0.000000 0.000000
RightFoot -11.311753 -2.617466 2.840707
RightToeBase 5.699318 -0.000000 -0.000000
LeftUpLeg -1.586977 3.512840 0.990714
LeftLeg 2.401970 -0.000000 -0.000000
LeftFoot -11.599846 3.304068 -10.147985
LeftToeBase 8.621857 -0.000000 -0.000000
Spine -13.132246 11.626775 -1.395009
RightShoulder 19.796220 52.374475 -36.362102
RightArm 81.304419 -39.412541 83.401514
RightForeArm 3.123190 0.000000 102.241629
RightHand 12.950232 -0.000000 22.195902
RightHandThumb1 -24.326973 -0.000000 -32.862282
LeftShoulder -3.413851 -13.574924 14.392407
LeftArm 19.350889 28.569344 -91.535564
LeftForeArm -51.740048 -0.000000 118.832336
LeftHand 7.789032 -0.000000 -32.415586
LeftHandThumb1 -26.253704 0.000000 33.147579
Head 3.898769 -6.502111 -5.338902
2111
root -3.093529 33.148378 -0.088602 8.067816 -2.964972 2.562130
RightUpLeg -1.039836 -5.087906 -1.617080
RightLeg -0.588397 -0.000000 0.000000
RightFoot -11.327993 -2.654021 2.824437
RightToeBase 5.707241 -0.000000 -0.000000
LeftUpLeg -1.595544 3.491315 0.977320
LeftLeg 2.411022 -0.000000 -0.000000
LeftFoot -11.607318 3.314649 -10.084406
LeftToeBase 8.675264 -0.000000 -0.000000
Spine -13.124143 11.673011 -1.393936
RightShoulder 19.741680 52.400410 -36.396502
RightArm 81.236404 -39.407032 83.443871
RightForeArm 3.189676 -0.000000 102.605622
RightHand 13.034033 -0.000000 22.525009
RightHandThumb1 -24.326973 -0.000000 -32.862282
LeftShoulder -3.379598 -13.595793 14.405726
LeftArm 19.333363 28.581797 -91.557843
LeftForeArm -51.784609 -0.000000 118.814903
LeftHand 7.760064 -0.000000 -32.371305
LeftHandThumb1 -26.253704 0.000000 33.147579
Head 3.934018 -6.531499 -5.318368
2112
root -3.091811 33.147944 -0.089658 8.072106 -2.938182 2.570031
RightUpLeg -1.037505 -5.096163 -1.625139
RightLeg -0.596795 -0.000000 0.000000
RightFoot -11.332416 -2.668417 2.843965
RightToeBase 5.711636 -0.000000 -0.000000
LeftUpLeg -1.613066 3.464024 0.970284
LeftLeg 2.427515 -0.000000 -0.000000
LeftFoot -11.606220 3.287796 -10.153551
LeftToeBase 8.623438 -0.000000 -0.000000
Spine -13.116145 11.685565 -1.391636
RightShoulder 19.682819 52.370027 -36.395969
RightArm 81.328788 -39.429051 83.361463
RightForeArm 3.052292 -0.000000 102.897595
RightHand 13.354291 -0.000000 22.642202
RightHandThumb1 -24.326973 -0.000000 -32.862282
LeftShoulder -3.391899 -13.542768 14.443228
LeftArm 19.398147 28.607053 -91.547995
LeftForeArm -51.788825 0.000000 118.797429
LeftHand 7.779794 -0.000000 -32.442134
LeftHandThumb1 -26.253704 0.000000 33.147579
Head 3.940100 -6.543324 -5.274371
2113
root -3.090510 33.146568 -0.090560 8.079595 -2.911155 2.576609
RightUpLeg -1.037792 -5.141063 -1.629443
RightLeg -0.606054 -0.000000 0.000000
RightFoot -11.347516 -2.640300 2.841108
RightToeBase 5.738137 -0.000000 -0.000000
LeftUpLeg -1.632820 3.447039 0.965525
LeftLeg 2.439955 -0.000000 -0.000000
LeftFoot -11.611543 3.274194 -10.148762
LeftToeBase 8.607947 -0.000000 -0.000000
Spine -13.097384 11.697833 -1.399545
RightShoulder 19.556705 52.354660 -36.464886
RightArm 81.393414 -39.464485 83.310150
RightForeArm 2.989346 -0.000000 103.220843
RightHand 13.279053 -0.000000 22.934066
RightHandThumb1 -24.326973 -0.000000 -32.862282
LeftShoulder -3.439472 -13.317548 14.475491
LeftArm 19.701075 28.673172 -91.416713
LeftForeArm -51.772373 -0.000000 118.775576
LeftHand 7.777303 -0.000000 -32.462618
LeftHandThumb1 -26.253704 0.000000 33.147579
Head 3.901555 -6.535518 -5.197659
